<svg width="162" height="90" viewBox="0 0 162 90" fill="none" xmlns="http://www.w3.org/2000/svg">
<path d="M71.3904 0.943548L93.8575 0L129.299 77.0565H108.414L68.6718 52.5242H96.4805L71.3904 0.943548Z" fill="#072A49"/>
<path d="M66.0109 12.8952L77.0862 33.0242L68.1507 52.4521L83.7314 61.9597L56.8342 77.0565L35 78L66.0109 12.8952Z" fill="#072A49"/>
<path d="M96.1191 52.3877H68.7609L108.343 76.8355L96.1191 52.3877Z" fill="url(#paint0_linear_1589_114)"/>
<path d="M83.8953 62.2832L68.1788 52.3877L57.1191 76.8355L83.8953 62.2832Z" fill="url(#paint1_linear_1589_114)"/>
<path d="M2.835 87.704L2.169 89H0.792L4.464 81.638L8.262 89H6.876L6.183 87.704H2.835ZM4.482 84.167L3.312 86.624H5.688L4.482 84.167ZM10.5915 89V81.944H11.8245V87.794H16.5405V89H10.5915ZM25.6702 87.803V89H19.0642V81.944H25.6702V83.141H20.2972V84.887H23.9242V86.057H20.2972V87.803H25.6702ZM29.7806 89H28.5476V81.746L34.3796 86.669V81.944H35.6036V89.243L29.7806 84.32V89ZM39.4648 88.001C38.6908 87.29 38.3038 86.453 38.3038 85.472C38.3038 84.491 38.6908 83.654 39.4648 82.943C40.2298 82.268 41.1478 81.935 42.2008 81.935C42.8668 81.935 43.4968 82.079 44.0818 82.376C44.6758 82.664 45.1528 83.069 45.5128 83.6L44.5048 84.302C44.0098 83.573 43.1368 83.141 42.2008 83.141C41.4628 83.141 40.8328 83.366 40.3108 83.825C39.7978 84.284 39.5368 84.833 39.5368 85.472C39.5368 86.111 39.7978 86.66 40.3108 87.119C40.8328 87.578 41.4628 87.803 42.2008 87.803C43.1368 87.803 44.0188 87.362 44.5138 86.633L45.5218 87.326C45.1618 87.857 44.6848 88.271 44.0908 88.568C43.5058 88.865 42.8758 89.009 42.2008 89.009C41.1478 89.009 40.2298 88.676 39.4648 88.001ZM49.5225 87.704L48.8565 89H47.4795L51.1515 81.638L54.9495 89H53.5635L52.8705 87.704H49.5225ZM51.1695 84.167L49.9995 86.624H52.3755L51.1695 84.167ZM62.778 89L60.375 86.444H58.512V89H57.279V81.944H61.878C62.499 81.944 63.039 82.169 63.48 82.61C63.921 83.051 64.146 83.573 64.146 84.194C64.146 84.797 63.939 85.319 63.516 85.742C63.102 86.165 62.58 86.39 61.95 86.417L64.371 89H62.778ZM58.512 85.256H61.824C62.13 85.256 62.391 85.148 62.598 84.941C62.805 84.734 62.913 84.482 62.913 84.185C62.913 83.888 62.805 83.636 62.598 83.429C62.391 83.222 62.13 83.114 61.824 83.114H58.512V85.256ZM73.1796 88.001C72.4056 87.29 72.0186 86.453 72.0186 85.472C72.0186 84.491 72.4056 83.654 73.1796 82.943C73.9446 82.268 74.8626 81.935 75.9156 81.935C76.5816 81.935 77.2116 82.079 77.7966 82.376C78.3906 82.664 78.8676 83.069 79.2276 83.6L78.2196 84.302C77.7246 83.573 76.8516 83.141 75.9156 83.141C75.1776 83.141 74.5476 83.366 74.0256 83.825C73.5126 84.284 73.2516 84.833 73.2516 85.472C73.2516 86.111 73.5126 86.66 74.0256 87.119C74.5476 87.578 75.1776 87.803 75.9156 87.803C76.8516 87.803 77.7336 87.362 78.2286 86.633L79.2366 87.326C78.8766 87.857 78.3996 88.271 77.8056 88.568C77.2206 88.865 76.5906 89.009 75.9156 89.009C74.8626 89.009 73.9446 88.676 73.1796 88.001ZM85.4693 89.009C84.3983 89.009 83.4803 88.667 82.7153 87.983C81.9503 87.299 81.5723 86.462 81.5723 85.472C81.5723 84.473 81.9503 83.636 82.7153 82.961C83.4803 82.277 84.3983 81.935 85.4693 81.935C86.5403 81.935 87.4493 82.277 88.2143 82.961C88.9793 83.645 89.3573 84.482 89.3573 85.472C89.3573 86.462 88.9703 87.299 88.2053 87.983C87.4403 88.667 86.5313 89.009 85.4693 89.009ZM85.4693 87.803C86.1983 87.803 86.8283 87.578 87.3503 87.119C87.8723 86.66 88.1333 86.111 88.1333 85.472C88.1333 84.833 87.8723 84.284 87.3503 83.825C86.8283 83.366 86.1983 83.141 85.4693 83.141C84.7313 83.141 84.1013 83.366 83.5793 83.825C83.0663 84.284 82.8053 84.833 82.8053 85.472C82.8053 86.111 83.0663 86.66 83.5793 87.119C84.1013 87.578 84.7313 87.803 85.4693 87.803ZM97.5563 89L95.1533 86.444H93.2903V89H92.0573V81.944H96.6563C97.2773 81.944 97.8173 82.169 98.2583 82.61C98.6993 83.051 98.9243 83.573 98.9243 84.194C98.9243 84.797 98.7173 85.319 98.2943 85.742C97.8803 86.165 97.3583 86.39 96.7283 86.417L99.1493 89H97.5563ZM93.2903 85.256H96.6023C96.9083 85.256 97.1693 85.148 97.3763 84.941C97.5833 84.734 97.6913 84.482 97.6913 84.185C97.6913 83.888 97.5833 83.636 97.3763 83.429C97.1693 83.222 96.9083 83.114 96.6023 83.114H93.2903V85.256ZM107.259 89L104.856 86.444H102.993V89H101.76V81.944H106.359C106.98 81.944 107.52 82.169 107.961 82.61C108.402 83.051 108.627 83.573 108.627 84.194C108.627 84.797 108.42 85.319 107.997 85.742C107.583 86.165 107.061 86.39 106.431 86.417L108.852 89H107.259ZM102.993 85.256H106.305C106.611 85.256 106.872 85.148 107.079 84.941C107.286 84.734 107.394 84.482 107.394 84.185C107.394 83.888 107.286 83.636 107.079 83.429C106.872 83.222 106.611 83.114 106.305 83.114H102.993V85.256ZM118.07 87.803V89H111.464V81.944H118.07V83.141H112.697V84.887H116.324V86.057H112.697V87.803H118.07ZM123.314 89V83.15H120.407V81.944H127.454V83.15H124.547V89H123.314ZM133.51 89.009C132.439 89.009 131.521 88.667 130.756 87.983C129.991 87.299 129.613 86.462 129.613 85.472C129.613 84.473 129.991 83.636 130.756 82.961C131.521 82.277 132.439 81.935 133.51 81.935C134.581 81.935 135.49 82.277 136.255 82.961C137.02 83.645 137.398 84.482 137.398 85.472C137.398 86.462 137.011 87.299 136.246 87.983C135.481 88.667 134.572 89.009 133.51 89.009ZM133.51 87.803C134.239 87.803 134.869 87.578 135.391 87.119C135.913 86.66 136.174 86.111 136.174 85.472C136.174 84.833 135.913 84.284 135.391 83.825C134.869 83.366 134.239 83.141 133.51 83.141C132.772 83.141 132.142 83.366 131.62 83.825C131.107 84.284 130.846 84.833 130.846 85.472C130.846 86.111 131.107 86.66 131.62 87.119C132.142 87.578 132.772 87.803 133.51 87.803ZM145.597 89L143.194 86.444H141.331V89H140.098V81.944H144.697C145.318 81.944 145.858 82.169 146.299 82.61C146.74 83.051 146.965 83.573 146.965 84.194C146.965 84.797 146.758 85.319 146.335 85.742C145.921 86.165 145.399 86.39 144.769 86.417L147.19 89H145.597ZM141.331 85.256H144.643C144.949 85.256 145.21 85.148 145.417 84.941C145.624 84.734 145.732 84.482 145.732 84.185C145.732 83.888 145.624 83.636 145.417 83.429C145.21 83.222 144.949 83.114 144.643 83.114H141.331V85.256ZM151.106 87.704L150.44 89H149.063L152.735 81.638L156.533 89H155.147L154.454 87.704H151.106ZM152.753 84.167L151.583 86.624H153.959L152.753 84.167Z" fill="#072A49"/>
<defs>
<linearGradient id="paint0_linear_1589_114" x1="82.7311" y1="52.3877" x2="89.7162" y2="80.9101" gradientUnits="userSpaceOnUse">
<stop offset="0.131037" stop-color="#072A49"/>
<stop offset="1" stop-color="#000102"/>
</linearGradient>
<linearGradient id="paint1_linear_1589_114" x1="82.7311" y1="52.3877" x2="89.7162" y2="80.9101" gradientUnits="userSpaceOnUse">
<stop offset="0.131037" stop-color="#072A49"/>
<stop offset="1" stop-color="#000102"/>
</linearGradient>
</defs>
</svg>
